<?xml version="1.0" encoding="UTF-8" standalone="yes"?><svg xmlns="http://www.w3.org/2000/svg" xmlns:xlink="http://www.w3.org/1999/xlink" height="103pt" style="width:268px;height:103px;" version="1.1" viewBox="0 0 268 103" width="268pt"><defs><filter height="300%" id="f1" width="300%" x="-1" y="-1"><feGaussianBlur result="blurOut" stdDeviation="2.0"/><feColorMatrix in="blurOut" result="blurOut2" type="matrix" values="0 0 0 0 0 0 0 0 0 0 0 0 0 0 0 0 0 0 .4 0"/><feOffset dx="4.0" dy="4.0" in="blurOut2" result="blurOut3"/><feBlend in="SourceGraphic" in2="blurOut3" mode="normal"/></filter></defs><g><rect fill="#FEFECE" filter="url(#f1)" height="86.3979" style="stroke: #A80036; stroke-width: 1.5;" width="253" x="6" y="8"/><ellipse cx="94.25" cy="24" fill="#ADD1B2" rx="11" ry="11" style="stroke: #A80036; stroke-width: 1.0;"/><path d="M98.0781,29.6563 Q96.2031,30.3125 94.3906,30.3125 Q91.7969,30.3125 90.2109,28.5313 Q88.625,26.75 88.625,23.8438 Q88.625,21.1563 90.0313,19.3906 Q90.8906,18.3125 92.0078,17.8594 Q93.125,17.4063 94.9063,17.4063 Q96.625,17.4063 98.0781,17.7656 L98.0781,19.75 Q96.2031,19.0469 94.9531,19.0469 Q93.2656,19.0469 92.2734,20.3672 Q91.2813,21.6875 91.2813,23.9219 Q91.2813,25.9688 92.3203,27.2656 Q93.3594,28.5625 95,28.5625 Q96.3906,28.5625 98.0781,27.7813 L98.0781,29.6563 Z "/><text fill="#000000" font-family="sans-serif" font-size="12" lengthAdjust="spacingAndGlyphs" textLength="68" x="114.75" y="28.4209">LogRuleDRL</text><line style="stroke: #A80036; stroke-width: 1.5;" x1="7" x2="258" y1="40" y2="40"/><line style="stroke: #A80036; stroke-width: 1.5;" x1="7" x2="258" y1="48" y2="48"/><ellipse cx="17" cy="59.8997" fill="#84BE84" rx="3" ry="3" style="stroke: #038048; stroke-width: 1.0;"/><text fill="#000000" font-family="sans-serif" font-size="11" lengthAdjust="spacingAndGlyphs" textLength="225" x="26" y="62.4521">objectInserted(ObjectInsertedEvent event)</text><ellipse cx="17" cy="72.699" fill="#84BE84" rx="3" ry="3" style="stroke: #038048; stroke-width: 1.0;"/><text fill="#000000" font-family="sans-serif" font-size="11" lengthAdjust="spacingAndGlyphs" textLength="227" x="26" y="75.2515">objectUpdated(ObjectUpdatedEvent event)</text><ellipse cx="17" cy="85.4983" fill="#84BE84" rx="3" ry="3" style="stroke: #038048; stroke-width: 1.0;"/><text fill="#000000" font-family="sans-serif" font-size="11" lengthAdjust="spacingAndGlyphs" textLength="217" x="26" y="88.0508">objectDeleted(ObjectDeletedEvent event)</text></g></svg>